{"title":"Cosmos A Space Time Odissey S01E01 720p Dual Latino Ingles [SM]","uid":9789380,"size":1376647362,"categoryP":"video","categoryS":"hd___tv_shows","magnet":"?xt=urn:btih:0ef9e690fae211f6c54bf18ed8f23846aad14b11&amp;dn=Cosmos+A+Space+Time+Odissey+S01E01+720p+Dual+Latino+Ingles+%5BSM%5D&amp;tr=udp%3A%2F%2Ftracker.openbittorrent.com%3A80&amp;tr=udp%3A%2F%2Fopen.demonii.com%3A1337&amp;tr=udp%3A%2F%2Ftracker.coppersurfer.tk%3A6969&amp;tr=udp%3A%2F%2Fexodus.desync.com%3A6969","seeders":1,"leechers":0,"uploader":"SMatanza","files":-1,"time":1395224260,"description":"[COSMOS - A Space Time Odissey (S01E02)]\n[720p - Audio Dual Latino Ingles]\n[SMatanza]\n &lt;a href=&quot;\nhttp://istoreimg.com/i/53295f086579f.html&quot; rel=&quot;nofollow&quot; target=&quot;_NEW&quot;&gt;\nhttp://istoreimg.com/i/53295f086579f.html&lt;/a&gt;  &lt;a href=&quot;\nhttp://istoreimg.com/i/53295f0902921.html&quot; rel=&quot;nofollow&quot; target=&quot;_NEW&quot;&gt;\nhttp://istoreimg.com/i/53295f0902921.html&lt;/a&gt;  &lt;a href=&quot;\nhttp://istoreimg.com/i/53295f098877c.html&quot; rel=&quot;nofollow&quot; target=&quot;_NEW&quot;&gt;\nhttp://istoreimg.com/i/53295f098877c.html&lt;/a&gt;  &lt;a href=&quot;\nhttp://istoreimg.com/i/53295f0a5912e.html&quot; rel=&quot;nofollow&quot; target=&quot;_NEW&quot;&gt;\nhttp://istoreimg.com/i/53295f0a5912e.html&lt;/a&gt; \n\nFormat                                   : Matroska\nFormat version                           : Version 2\nFile size                                : 1.28 GiB\nDuration                                 : 42mn 21s\nOverall bit rate                         : 4 334 Kbps\nEncoded date                             : UTC 2014-03-19 07:52:23\nWriting library                          : libebml v1.0.0 + libmatroska v1.0.0\n\nVideo\nID                                       : 1\nFormat                                   : AVC\nFormat/Info                              : Advanced Video Codec\nFormat profile                           : &lt;a class=&quot;__cf_email__&quot; href=&quot;/cdn-cgi/l/email-protection&quot; data-cfemail=&quot;622a0b050a222e564c53&quot;&gt;[email&amp;#160;protected]&lt;/a&gt;&lt;script cf-hash='f9e31' type=&quot;text/javascript&quot;&gt;\n/* &lt;![CDATA[ */!function(){try{var t=&quot;currentScript&quot;in document?document.currentScript:function(){for(var t=document.getElementsByTagName(&quot;script&quot;),e=t.length;e--;)if(t[e].getAttribute(&quot;cf-hash&quot;))return t[e]}();if(t&amp;&amp;t.previousSibling){var e,r,n,i,c=t.previousSibling,a=c.getAttribute(&quot;data-cfemail&quot;);if(a){for(e=&quot;&quot;,r=parseInt(a.substr(0,2),16),n=2;a.length-n;n+=2)i=parseInt(a.substr(n,2),16)^r,e+=String.fromCharCode(i);e=document.createTextNode(e),c.parentNode.replaceChild(e,c)}}}catch(u){}}();/* ]]&gt; */&lt;/script&gt;\nFormat settings, CABAC                   : Yes\nFormat settings, ReFrames                : 5 frames\nMuxing mode                              : Header stripping\nCodec ID                                 : V_MPEG4/ISO/AVC\nDuration                                 : 42mn 21s\nBit rate                                 : 3 703 Kbps\nWidth                                    : 1 280 pixels\nHeight                                   : 720 pixels\nDisplay aspect ratio                     : 16:9\nFrame rate mode                          : Constant\nFrame rate                               : 23.976 fps\nColor space                              : YUV\nChroma subsampling                       : 4:2:0\nBit depth                                : 8 bits\nScan type                                : Progressive\nBits/(Pixel*Frame)                       : 0.168\nStream size                              : 1.10 GiB (85%)\nTitle                                    : Video\nWriting library                          : x264 core 142 r2389 956c8d8\nDefault                                  : Yes\nForced                                   : Yes\n\nAudio #1\nID                                       : 2\nFormat                                   : MPEG Audio\nFormat version                           : Version 1\nFormat profile                           : Layer 3\nMuxing mode                              : Header stripping\nCodec ID                                 : A_MPEG/L3\nCodec ID/Hint                            : MP3\nDuration                                 : 42mn 21s\nBit rate mode                            : Constant\nBit rate                                 : 96.0 Kbps\nChannel count                            : 2 channels\nSampling rate                            : 44.1 KHz\nCompression mode                         : Lossy\nDelay relative to video                  : -84ms\nStream size                              : 29.1 MiB (2%)\nTitle                                    : Spanish Audio\nLanguage                                 : Spanish\nDefault                                  : Yes\nForced                                   : Yes\n\nAudio #2\nID                                       : 3\nFormat                                   : AC-3\nFormat/Info                              : Audio Coding 3\nMode extension                           : CM (complete main)\nFormat settings, Endianness              : Big\nMuxing mode                              : Header stripping\nCodec ID                                 : A_AC3\nDuration                                 : 42mn 21s\nBit rate mode                            : Constant\nBit rate                                 : 448 Kbps\nChannel count                            : 6 channels\nChannel positions                        : Front: L C R, Side: L R, LFE\nSampling rate                            : 48.0 KHz\nBit depth                                : 16 bits\nCompression mode                         : Lossy\nDelay relative to video                  : -84ms\nStream size                              : 136 MiB (10%)\nTitle                                    : English Audio\nLanguage                                 : English\nDefault                                  : No\nForced                                   : No\n\nText #1\nID                                       : 4\nFormat                                   : UTF-8\nCodec ID                                 : S_TEXT/UTF8\nCodec ID/Info                            : UTF-8 Plain Text\nTitle                                    : Spanish Subtitles\nLanguage                                 : Spanish\nDefault                                  : No\nForced                                   : No\n\nText #2\nID                                       : 5\nFormat                                   : UTF-8\nCodec ID                                 : S_TEXT/UTF8\nCodec ID/Info                            : UTF-8 Plain Text\nTitle                                    : English Subtitles\nLanguage                                 : English\nDefault                                  : No\nForced                                   : No\n\n","torrent":{"xt":"urn:btih:0ef9e690fae211f6c54bf18ed8f23846aad14b11","amp;dn":"Cosmos+A+Space+Time+Odissey+S01E01+720p+Dual+Latino+Ingles+%5BSM%5D","amp;tr":["udp%3A%2F%2Ftracker.openbittorrent.com%3A80","udp%3A%2F%2Fopen.demonii.com%3A1337","udp%3A%2F%2Ftracker.coppersurfer.tk%3A6969","udp%3A%2F%2Fexodus.desync.com%3A6969"],"infoHash":"0ef9e690fae211f6c54bf18ed8f23846aad14b11","infoHashBuffer":{"type":"Buffer","data":[14,249,230,144,250,226,17,246,197,75,241,142,216,242,56,70,170,209,75,17]},"announce":[],"urlList":[]}}